<?xml version="1.0" encoding="utf-8"?>
<!-- Generator: Adobe Illustrator 19.1.0, SVG Export Plug-In . SVG Version: 6.00 Build 0)  -->
<svg version="1.1" id="Layer_1" xmlns="http://www.w3.org/2000/svg" xmlns:xlink="http://www.w3.org/1999/xlink" x="0px" y="0px"
	 viewBox="0 0 133.1 38.2" style="enable-background:new 0 0 133.1 38.2;" xml:space="preserve">
<style type="text/css">
	.st0{fill:#010101;}
	.st1{clip-path:url(#SVGID_2_);fill:url(#SVGID_3_);}
	.st2{clip-path:url(#SVGID_5_);fill:url(#SVGID_6_);}
	.st3{clip-path:url(#SVGID_8_);fill:url(#SVGID_9_);}
	.st4{clip-path:url(#SVGID_11_);fill:url(#SVGID_12_);}
	.st5{fill:#F9F9FA;}
	.st6{fill:#F8FAFB;}
</style>
<path class="st0" d="M133.1,34.4c0,2.1-1.7,3.8-3.8,3.8H3.8c-2.1,0-3.8-1.7-3.8-3.8V3.8C0,1.7,1.7,0,3.8,0h125.5
	c2.1,0,3.8,1.7,3.8,3.8L133.1,34.4L133.1,34.4z"/>
<g>
	<g id="PLAY_2_">
		<g>
			<defs>
				<path id="SVGID_1_" d="M28.2,16.9l-5.6-3.2c0,0-10.2-5.9-10.8-6.2c-0.6-0.3-1.2-0.1-1.2,0.6c0,1.2,0,12.5,0,12.5s0,12.3,0,12.8
					c0,0.5,0.4,0.8,0.9,0.5c0.5-0.3,11-6.4,11-6.4l5.6-3.2c0,0,4.7-2.7,5.4-3.1c0.6-0.4,0.6-0.9,0-1.1
					C33.1,19.8,28.2,16.9,28.2,16.9z"/>
			</defs>
			<clipPath id="SVGID_2_">
				<use xlink:href="#SVGID_1_"  style="overflow:visible;"/>
			</clipPath>
			
				<linearGradient id="SVGID_3_" gradientUnits="userSpaceOnUse" x1="-217.7574" y1="383.791" x2="-217.7574" y2="381.5056" gradientTransform="matrix(12 0 0 -12 2630.6499 4612.3984)">
				<stop  offset="0" style="stop-color:#277CB0"/>
				<stop  offset="0.2863" style="stop-color:#4B93B6"/>
				<stop  offset="0.767" style="stop-color:#79BDBB"/>
				<stop  offset="1" style="stop-color:#89CFBD"/>
			</linearGradient>
			<polygon class="st1" points="10.6,6.9 10.6,20.6 10.6,34.3 24.5,20.6 			"/>
		</g>
		<g>
			<defs>
				<path id="SVGID_4_" d="M28.2,16.9l-5.6-3.2c0,0-10.2-5.9-10.8-6.2c-0.6-0.3-1.2-0.1-1.2,0.6c0,1.2,0,12.5,0,12.5s0,12.3,0,12.8
					c0,0.5,0.4,0.8,0.9,0.5c0.5-0.3,11-6.4,11-6.4l5.6-3.2c0,0,4.7-2.7,5.4-3.1c0.6-0.4,0.6-0.9,0-1.1
					C33.1,19.8,28.2,16.9,28.2,16.9z"/>
			</defs>
			<clipPath id="SVGID_5_">
				<use xlink:href="#SVGID_4_"  style="overflow:visible;"/>
			</clipPath>
			
				<linearGradient id="SVGID_6_" gradientUnits="userSpaceOnUse" x1="-218.3336" y1="383.2238" x2="-216.8717" y2="383.2238" gradientTransform="matrix(12 0 0 -12 2630.6499 4612.3984)">
				<stop  offset="0" style="stop-color:#55C1AE"/>
				<stop  offset="1" style="stop-color:#DEE99B"/>
			</linearGradient>
			<polygon class="st2" points="28.2,16.9 22.6,13.7 10.6,6.8 10.6,6.9 24.5,20.6 			"/>
		</g>
		<g>
			<defs>
				<path id="SVGID_7_" d="M28.2,16.9l-5.6-3.2c0,0-10.2-5.9-10.8-6.2c-0.6-0.3-1.2-0.1-1.2,0.6c0,1.2,0,12.5,0,12.5s0,12.3,0,12.8
					c0,0.5,0.4,0.8,0.9,0.5c0.5-0.3,11-6.4,11-6.4l5.6-3.2c0,0,4.7-2.7,5.4-3.1c0.6-0.4,0.6-0.9,0-1.1
					C33.1,19.8,28.2,16.9,28.2,16.9z"/>
			</defs>
			<clipPath id="SVGID_8_">
				<use xlink:href="#SVGID_7_"  style="overflow:visible;"/>
			</clipPath>
			
				<linearGradient id="SVGID_9_" gradientUnits="userSpaceOnUse" x1="-217.6027" y1="382.6483" x2="-217.6027" y2="381.4973" gradientTransform="matrix(12 0 0 -12 2630.6499 4612.3984)">
				<stop  offset="0" style="stop-color:#EC423D"/>
				<stop  offset="0.1668" style="stop-color:#DA4553"/>
				<stop  offset="0.5748" style="stop-color:#B1497B"/>
				<stop  offset="0.8619" style="stop-color:#964C93"/>
				<stop  offset="1" style="stop-color:#8A4B9D"/>
			</linearGradient>
			<polygon class="st3" points="10.6,34.3 10.6,34.4 22.6,27.5 28.2,24.3 24.5,20.6 			"/>
		</g>
		<g>
			<defs>
				<path id="SVGID_10_" d="M28.2,16.9l-5.6-3.2c0,0-10.2-5.9-10.8-6.2c-0.6-0.3-1.2-0.1-1.2,0.6c0,1.2,0,12.5,0,12.5s0,12.3,0,12.8
					c0,0.5,0.4,0.8,0.9,0.5c0.5-0.3,11-6.4,11-6.4l5.6-3.2c0,0,4.7-2.7,5.4-3.1c0.6-0.4,0.6-0.9,0-1.1
					C33.1,19.8,28.2,16.9,28.2,16.9z"/>
			</defs>
			<clipPath id="SVGID_11_">
				<use xlink:href="#SVGID_10_"  style="overflow:visible;"/>
			</clipPath>
			
				<linearGradient id="SVGID_12_" gradientUnits="userSpaceOnUse" x1="-216.7607" y1="382.9552" x2="-216.7607" y2="382.3414" gradientTransform="matrix(12 0 0 -12 2630.6499 4612.3984)">
				<stop  offset="0" style="stop-color:#F58979"/>
				<stop  offset="0.1194" style="stop-color:#F6917A"/>
				<stop  offset="0.7128" style="stop-color:#FCB878"/>
				<stop  offset="1" style="stop-color:#FEC975"/>
			</linearGradient>
			<polygon class="st4" points="28.2,16.9 24.5,20.6 28.2,24.3 34.6,20.6 			"/>
		</g>
	</g>
	<path class="st5" d="M97.7,26c-0.5,0-1-0.1-1.4-0.3c-0.4-0.2-0.8-0.5-1.1-0.9h-0.1c0.1,0.5,0.1,0.9,0.1,1.3v3.3H94V17.9h1l0.2,1.1
		h0.1c0.3-0.4,0.7-0.8,1.1-0.9c0.4-0.2,0.9-0.3,1.4-0.3c1.1,0,1.9,0.4,2.4,1.1c0.6,0.7,0.9,1.7,0.9,3c0,1.3-0.3,2.3-0.9,3.1
		C99.6,25.6,98.7,26,97.7,26z M97.5,18.7c-0.8,0-1.4,0.2-1.8,0.7c-0.4,0.5-0.6,1.2-0.6,2.2v0.3c0,1.1,0.2,1.9,0.6,2.4
		c0.4,0.5,1,0.7,1.8,0.7c0.7,0,1.2-0.3,1.6-0.8c0.4-0.6,0.6-1.3,0.6-2.3c0-1-0.2-1.8-0.6-2.3C98.8,19,98.2,18.7,97.5,18.7z"/>
	<path class="st5" d="M103.8,25.8h-1.2V14.5h1.2V25.8z"/>
	<path class="st5" d="M110.8,25.8l-0.2-1.1h-0.1c-0.4,0.5-0.8,0.8-1.2,1c-0.4,0.2-0.9,0.3-1.5,0.3c-0.8,0-1.4-0.2-1.9-0.6
		s-0.7-1-0.7-1.7c0-1.6,1.3-2.5,3.9-2.5l1.4,0v-0.5c0-0.6-0.1-1.1-0.4-1.4c-0.3-0.3-0.7-0.4-1.3-0.4c-0.7,0-1.4,0.2-2.3,0.6
		l-0.4-0.9c0.4-0.2,0.8-0.4,1.3-0.5c0.5-0.1,0.9-0.2,1.4-0.2c1,0,1.7,0.2,2.1,0.6c0.5,0.4,0.7,1.1,0.7,2v5.4L110.8,25.8L110.8,25.8z
		 M108,25c0.8,0,1.3-0.2,1.8-0.6c0.4-0.4,0.6-1,0.6-1.7v-0.7l-1.2,0.1c-1,0-1.7,0.2-2.1,0.4c-0.4,0.3-0.6,0.7-0.6,1.2
		c0,0.4,0.1,0.8,0.4,1C107.2,24.9,107.6,25,108,25z"/>
	<path class="st5" d="M112.4,17.9h1.3l1.7,4.5c0.4,1,0.6,1.8,0.7,2.2h0.1c0.1-0.2,0.2-0.7,0.4-1.3c0.2-0.6,0.9-2.4,2-5.5h1.3
		l-3.4,9.1c-0.3,0.9-0.7,1.5-1.2,1.9c-0.5,0.4-1,0.6-1.7,0.6c-0.4,0-0.7,0-1.1-0.1v-1c0.3,0.1,0.6,0.1,0.9,0.1
		c0.8,0,1.4-0.5,1.8-1.4l0.4-1.1L112.4,17.9z"/>
	<path class="st5" d="M75.3,18.6c0.4,0.3,1.2,1,1.2,2.3c0,1.2-0.7,1.8-1.4,2.4c-0.2,0.2-0.5,0.5-0.5,0.8c0,0.4,0.3,0.6,0.4,0.7
		l0.6,0.5c0.7,0.6,1.4,1.2,1.4,2.3c0,1.6-1.5,3.2-4.4,3.2c-2.4,0-3.6-1.2-3.6-2.4c0-0.6,0.3-1.5,1.3-2c1-0.6,2.4-0.7,3.2-0.8
		c-0.2-0.3-0.5-0.6-0.5-1.1c0-0.3,0.1-0.5,0.2-0.7c-0.2,0-0.4,0-0.5,0c-1.8,0-2.8-1.3-2.8-2.6c0-0.8,0.4-1.6,1.1-2.2
		c1-0.8,2.1-0.9,3-0.9h3.4l-1.1,0.6L75.3,18.6L75.3,18.6z M74.1,26c-0.1,0-0.2,0-0.4,0c-0.2,0-1.1,0-1.8,0.3
		c-0.4,0.1-1.4,0.5-1.4,1.7c0,1.2,1.2,2,2.9,2c1.6,0,2.5-0.8,2.5-1.8C76,27.4,75.4,26.9,74.1,26z M74.6,22.8
		c0.4-0.4,0.4-0.9,0.4-1.2c0-1.2-0.7-3.1-2.1-3.1c-0.4,0-0.9,0.2-1.2,0.6c-0.3,0.4-0.4,0.8-0.4,1.2c0,1.1,0.7,3,2.1,3
		C73.9,23.3,74.4,23.1,74.6,22.8z"/>
	<path class="st5" d="M64.8,25.7c-2.6,0-4.1-2.1-4.1-3.9c0-2.2,1.8-4,4.3-4c2.4,0,4,1.9,4,3.9C69.1,23.7,67.5,25.7,64.8,25.7z
		 M66.9,24.4c0.4-0.5,0.5-1.2,0.5-1.8c0-1.5-0.7-4.3-2.8-4.3c-0.5,0-1.1,0.2-1.5,0.6c-0.6,0.6-0.8,1.3-0.8,2c0,1.6,0.8,4.4,2.8,4.4
		C65.9,25.2,66.5,24.9,66.9,24.4z"/>
	<path class="st5" d="M55.8,25.7c-2.6,0-4.1-2.1-4.1-3.9c0-2.2,1.8-4,4.3-4c2.4,0,4,1.9,4,3.9C60,23.7,58.5,25.7,55.8,25.7z
		 M57.9,24.4c0.4-0.5,0.5-1.2,0.5-1.8c0-1.5-0.7-4.3-2.8-4.3c-0.5,0-1.1,0.2-1.5,0.6c-0.6,0.6-0.8,1.3-0.8,2c0,1.6,0.8,4.4,2.8,4.4
		C56.8,25.2,57.5,24.9,57.9,24.4z"/>
	<path class="st5" d="M50.5,25.5L48.1,26c-1,0.2-1.8,0.3-2.8,0.3c-4.6,0-6.4-3.4-6.4-6.1c0-3.2,2.5-6.3,6.8-6.3
		c0.9,0,1.8,0.1,2.6,0.4c1.3,0.4,1.8,0.8,2.2,1l-1.4,1.3l-0.6,0.1l0.4-0.7c-0.6-0.6-1.6-1.6-3.6-1.6c-2.6,0-4.6,2-4.6,4.9
		c0,3.1,2.3,6.1,5.9,6.1c1.1,0,1.6-0.2,2.1-0.4v-2.7l-2.5,0.1l1.3-0.7h3.6l-0.4,0.4c-0.1,0.1-0.1,0.1-0.2,0.3c0,0.2,0,0.6,0,0.8
		L50.5,25.5L50.5,25.5z"/>
	<path class="st5" d="M80.6,25c-0.6-0.1-0.7-0.2-0.7-0.8V24v-9.3c0,0,0-0.1,0-0.1c0.1-0.6,0.2-0.7,0.8-1h-2.4l-1.3,0.6h1.3v0l0,0V24
		v0.6c0,0.3-0.1,0.4-0.5,0.9h3l0.6-0.4C81.2,25,80.9,25,80.6,25z"/>
	<path class="st5" d="M87.4,25.2c-0.2,0.1-0.4,0.2-0.5,0.3c-0.5,0.2-1.1,0.3-1.6,0.3c-0.5,0-1.4,0-2.2-0.6c-1.2-0.8-1.7-2.3-1.7-3.5
		c0-2.6,2.1-3.8,3.8-3.8c0.6,0,1.2,0.1,1.7,0.5c0.8,0.5,1,1.3,1.2,1.6l-3.9,1.6l-1.3,0.1c0.4,2.1,1.8,3.3,3.4,3.3
		c0.8,0,1.5-0.3,2-0.6L87.4,25.2z M85.9,20.2c0.3-0.1,0.5-0.2,0.5-0.4c0-0.7-0.7-1.4-1.6-1.4c-0.7,0-1.9,0.5-1.9,2.3
		c0,0.3,0,0.6,0.1,0.9L85.9,20.2z"/>
	<path class="st5" d="M89,17.9V19h-0.1v-1.1h-0.4v-0.1h0.9v0.1H89z"/>
	<path class="st5" d="M90.5,19v-1.1h0L90.2,19h-0.1l-0.3-1.1h0V19h-0.1v-1.2h0.2l0.3,1h0l0.3-1h0.2V19H90.5z"/>
	<path class="st6" d="M42.3,10.7h-0.8c0-0.1-0.1-0.4-0.2-1H40c-0.2,0.5-0.2,0.8-0.2,1H39c0-0.1,0.2-0.6,0.6-1.7s0.6-1.6,0.6-1.7h1
		c0,0.1,0.2,0.7,0.5,1.7C42.1,10.1,42.3,10.6,42.3,10.7z M41.1,9.3c-0.3-0.9-0.4-1.4-0.4-1.5h0c0,0.1-0.2,0.6-0.5,1.5H41.1z"/>
	<path class="st6" d="M45.6,10.7H45c0-0.1-0.2-0.4-0.7-1.1c-0.5-0.7-0.8-1.2-0.9-1.5h0c0,0.4,0.1,0.7,0.1,1c0,0.4,0,1,0,1.6h-0.6
		c0-0.5,0-1.1,0-1.8c0-0.6,0-1.2,0-1.6h0.8c0,0.1,0.2,0.5,0.6,1.1c0.5,0.7,0.7,1.1,0.8,1.4h0c0-0.4-0.1-0.7-0.1-1c0-0.5,0-1,0-1.4
		h0.7c0,0.4,0,1,0,1.6C45.6,9.6,45.6,10.2,45.6,10.7z"/>
	<path class="st6" d="M49.4,8.9c0,0.5-0.2,0.9-0.5,1.3c-0.3,0.4-0.8,0.6-1.3,0.6c-0.3,0-0.6,0-1.1,0c0-0.5,0-1.1,0-1.8
		c0-0.6,0-1.2,0-1.6H47c0.1,0,0.2,0,0.3,0c0.1,0,0.2,0,0.3,0c0.6,0,1.1,0.2,1.4,0.5C49.2,8.1,49.4,8.5,49.4,8.9z M48.7,9
		c0-0.3-0.1-0.6-0.3-0.8c-0.2-0.2-0.5-0.3-0.9-0.3c-0.1,0-0.2,0-0.3,0c0,0.3,0,0.7,0,1.1c0,0.4,0,0.8,0,1.2c0.1,0,0.2,0,0.3,0
		c0.4,0,0.6-0.1,0.8-0.3C48.6,9.6,48.7,9.4,48.7,9z"/>
	<path class="st6" d="M52.9,10.7h-0.8c-0.2-0.6-0.4-1-0.5-1.1c-0.1-0.1-0.3-0.2-0.5-0.2c-0.1,0-0.2,0-0.3,0c0,0.4,0,0.9,0,1.3h-0.7
		c0-0.5,0-1.1,0-1.8c0-0.6,0-1.2,0-1.6h0.4c0.1,0,0.2,0,0.3,0c0.2,0,0.3,0,0.5,0c0.8,0,1.2,0.3,1.2,0.8c0,0.4-0.2,0.7-0.7,0.9v0
		c0.2,0,0.3,0.2,0.5,0.4C52.4,9.7,52.6,10.1,52.9,10.7z M51.9,8.3c0-0.3-0.2-0.5-0.7-0.5c-0.2,0-0.3,0-0.4,0c0,0.3,0,0.6,0,1.1
		c0.1,0,0.2,0,0.2,0C51.6,8.9,51.9,8.7,51.9,8.3z"/>
	<path class="st6" d="M56.6,9c0,0.5-0.2,1-0.5,1.3c-0.3,0.3-0.7,0.5-1.2,0.5c-0.5,0-0.8-0.2-1.1-0.5c-0.3-0.3-0.5-0.7-0.5-1.2
		c0-0.5,0.2-1,0.5-1.3c0.3-0.3,0.7-0.5,1.2-0.5c0.5,0,0.8,0.2,1.1,0.5S56.6,8.5,56.6,9z M55.9,9.1c0-0.4-0.1-0.7-0.3-0.9
		c-0.2-0.2-0.4-0.3-0.7-0.3c-0.3,0-0.5,0.1-0.6,0.3C54.1,8.4,54,8.7,54,9c0,0.4,0.1,0.7,0.3,0.9c0.2,0.2,0.4,0.3,0.7,0.3
		c0.3,0,0.5-0.1,0.6-0.3C55.8,9.7,55.9,9.4,55.9,9.1z"/>
	<path class="st6" d="M58,10.7h-0.7c0-0.5,0-1.1,0-1.8c0-0.6,0-1.2,0-1.6H58c0,0.4,0,1,0,1.6C58,9.6,58,10.2,58,10.7z"/>
	<path class="st6" d="M61.8,8.9c0,0.5-0.2,0.9-0.5,1.3c-0.3,0.4-0.8,0.6-1.3,0.6c-0.3,0-0.6,0-1.1,0c0-0.5,0-1.1,0-1.8
		c0-0.6,0-1.2,0-1.6h0.5c0.1,0,0.2,0,0.3,0c0.1,0,0.2,0,0.3,0c0.6,0,1.1,0.2,1.4,0.5C61.7,8.1,61.8,8.5,61.8,8.9z M61.1,9
		c0-0.3-0.1-0.6-0.3-0.8c-0.2-0.2-0.5-0.3-0.9-0.3c-0.1,0-0.2,0-0.3,0c0,0.3,0,0.7,0,1.1c0,0.4,0,0.8,0,1.2c0.1,0,0.2,0,0.3,0
		c0.4,0,0.6-0.1,0.8-0.3C61,9.6,61.1,9.4,61.1,9z"/>
	<path class="st6" d="M66.8,10.7H66c0-0.1-0.1-0.4-0.2-1h-1.2c-0.2,0.5-0.2,0.8-0.2,1h-0.8c0-0.1,0.2-0.6,0.6-1.7s0.6-1.6,0.6-1.7h1
		c0,0.1,0.2,0.7,0.5,1.7C66.6,10.1,66.8,10.6,66.8,10.7z M65.6,9.3c-0.3-0.9-0.4-1.4-0.4-1.5h0c0,0.1-0.2,0.6-0.5,1.5H65.6z"/>
	<path class="st6" d="M69.8,8.2c0,0.4-0.2,0.7-0.5,0.9c-0.3,0.2-0.7,0.3-1.1,0.3c-0.1,0-0.1,0-0.2,0c0,0.3,0,0.8,0,1.3h-0.7
		c0-0.5,0-1.1,0-1.8c0-0.6,0-1.2,0-1.6h0.5c0.1,0,0.2,0,0.4,0c0.2,0,0.3,0,0.5,0c0.3,0,0.6,0.1,0.8,0.2C69.7,7.7,69.8,7.9,69.8,8.2z
		 M69.2,8.4c0-0.4-0.2-0.6-0.7-0.6c-0.1,0-0.3,0-0.4,0c0,0.3,0,0.7,0,1.1c0,0,0.1,0,0.2,0C68.9,9,69.2,8.8,69.2,8.4z"/>
	<path class="st6" d="M73,8.2c0,0.4-0.2,0.7-0.5,0.9c-0.3,0.2-0.7,0.3-1.1,0.3c-0.1,0-0.1,0-0.2,0c0,0.3,0,0.8,0,1.3h-0.7
		c0-0.5,0-1.1,0-1.8c0-0.6,0-1.2,0-1.6h0.5c0.1,0,0.2,0,0.4,0c0.2,0,0.3,0,0.5,0c0.3,0,0.6,0.1,0.8,0.2C72.9,7.7,73,7.9,73,8.2z
		 M72.3,8.4c0-0.4-0.2-0.6-0.7-0.6c-0.1,0-0.3,0-0.4,0c0,0.3,0,0.7,0,1.1c0,0,0.1,0,0.2,0C72,9,72.3,8.8,72.3,8.4z"/>
	<path class="st6" d="M78.1,9c0,0.5-0.2,1-0.5,1.3c-0.3,0.4-0.7,0.5-1.2,0.5c-0.5,0-0.8-0.2-1.1-0.5c-0.3-0.3-0.5-0.7-0.5-1.2
		c0-0.5,0.2-1,0.5-1.3s0.7-0.5,1.2-0.5c0.5,0,0.8,0.2,1.1,0.5S78.1,8.5,78.1,9z M77.3,9.1c0-0.4-0.1-0.7-0.3-0.9s-0.4-0.3-0.7-0.3
		c-0.3,0-0.5,0.1-0.6,0.3c-0.2,0.2-0.3,0.5-0.3,0.9c0,0.4,0.1,0.7,0.3,0.9c0.2,0.2,0.4,0.3,0.7,0.3c0.3,0,0.5-0.1,0.6-0.3
		C77.3,9.7,77.3,9.4,77.3,9.1z"/>
	<path class="st6" d="M81.6,10.7h-0.6c0-0.1-0.2-0.4-0.7-1.1c-0.5-0.7-0.8-1.2-0.9-1.5h0c0,0.4,0.1,0.7,0.1,1c0,0.4,0,1,0,1.6h-0.6
		c0-0.5,0-1.1,0-1.8c0-0.6,0-1.2,0-1.6h0.8c0,0.1,0.2,0.5,0.6,1.1c0.5,0.7,0.7,1.1,0.8,1.4h0c0-0.4-0.1-0.7-0.1-1c0-0.5,0-1,0-1.4
		h0.7c0,0.4,0,1,0,1.6C81.6,9.6,81.6,10.2,81.6,10.7z"/>
</g>
</svg>
